<svg version="1" xmlns="http://www.w3.org/2000/svg" width="682.667" height="682.667" viewBox="0 0 512.000000 512.000000"><path d="M443.1 25c-32.4 4.4-59.9 27.1-66.7 55.1l-1.6 6.6-10.1-4.4c-23-10.1-54.4-18.6-78.9-21.2-42.6-4.7-89.8 5.1-134.3 27.8-7.1 3.6-13.2 6.7-13.5 6.9-.3.1-1.1-2.4-1.8-5.5-3.1-14.7-14.2-33.2-27.5-46-9.9-9.5-16.3-13.1-25.1-14.1-24.9-3-55.6 9-69.1 27C0 76.5-1.3 100.8 10.8 124.5c5.5 10.5 19.1 23.8 30.2 29.3 7.9 3.9 16.7 6.7 23.3 7.4 2.4.2 9-4.2 38.2-25.7l35.4-26 .3-6 .3-6 12.5-5.7c41.5-19 82.7-28.1 120-26.4 31.6 1.3 64.9 8.9 95.5 21.8l8 3.4.3 5.4.3 5.5 37.2 23c42.6 26.3 38.7 25 54.9 19.2 17.5-6.3 28.7-15.5 35.3-29.2 5.1-10.6 6.9-20.5 6.2-33.9-.9-18.1-5.9-31.6-15.2-41.1-10.8-11.1-31.5-17-50.4-14.5zM313 181.3c-5.6 1.6-16.8 7.7-19.7 10.9-1.2 1.3-3.4 5-5 8.3-2.7 5.7-2.8 6.7-2.8 20.5 0 12.3.5 16.8 3.2 30 1.8 8.5 3.9 19.3 4.8 24 2.2 12 7.5 22.3 14 27.2 6.9 5.2 12.4 6.9 24 7.5 20.9 1.1 39.2-7.8 47.2-22.9 2.5-4.8 2.8-6.3 2.8-15.3 0-9.4-.3-10.5-3.8-18.5-2.1-4.7-6.5-15.3-9.8-23.7-9.4-23.8-20.4-39.4-32.2-45.9-5.9-3.2-15.6-4.1-22.7-2.1zM174 185.3c-3 .7-7.7 2.3-10.4 3.6-6.6 3.2-17.6 13.8-23.2 22.2-5.7 8.6-21 41.4-23.1 49.4-3.7 14.3.7 28.8 12 39.9 18.3 17.9 43.8 19.3 58.5 3.1 6.8-7.5 9.4-12.9 15.6-33 9.1-29.5 11-38.3 11-51.5.1-10.7-.1-11.9-2.8-17.3-6-12.2-23-19.6-37.6-16.4zM267 310.2c-17 4.3-15.6 4.3-51.1 2.2-15.7-1-20.2 1-20.1 8.7.1 6.2 4.6 14.3 12.6 22.7 12.8 13.5 25.4 22.4 35.5 25.2l4.3 1.1-.7 5.2c-.8 5.4-2.5 9.6-4.7 11.4-.7.6-4.7 2.2-8.8 3.4-6.1 1.9-9.7 2.4-19.5 2.4-13 0-18.6-1.1-27.5-5.6-10.5-5.2-16.5-13-25-32.7-2.5-5.7-4.9-10.4-5.5-10.3-1.8 0-2.5 6.5-1.5 14 3.2 24 16.5 52.1 32.5 68.6 11.3 11.7 17.6 13.4 40.7 10.9 12.1-1.4 23-1.8 42.2-1.6 14.7.1 27.5-.2 29.6-.8 4.9-1.3 11-6.3 16.2-13 11-14.6 24.1-55 25.5-79.1.8-14.7-.6-14.7-5.2-.2-8.8 28.2-15.9 37.4-32.9 43-7.2 2.4-9.7 2.7-22.6 2.7-13.7.1-14.8 0-20.3-2.6-6-2.8-6.9-4.1-8.2-11.5-.6-4.1-.5-4.3 2.2-5.3 5.2-1.9 7.5-3.4 17-11.4 16.3-13.6 26.3-28.2 27.1-39.7.4-5.2.2-6-2.2-8.2-5.2-4.8-9.3-4.7-29.6.5z"/><path d="M484.5 312.7c-3 8.3-13.9 29.4-20.6 40.1-21.4 34.4-50.6 63.6-79.9 79.9-13 7.2-37.2 16.3-58.5 21.8-55 14.4-108.4 12.6-161-5.5-35-12.1-66-29.6-98-55.3-12.2-9.8-22.7-19.9-30.3-29.2-3.2-3.8-3.2-3.8-1.5-.7 3.9 7.3 14.6 20.2 24.4 29.7 26.3 25.5 62.8 49.5 96.3 63.4 50.4 20.9 103.6 25.5 157.6 13.5 24.1-5.4 55-16.9 71.8-26.8 35.1-20.8 67.8-58.4 89.2-102.8 5.7-11.9 13.5-31.7 12.7-32.5-.2-.2-1.2 1.8-2.2 4.4z"/></svg>