<?xml version="1.0" standalone="no"?>
<!DOCTYPE svg PUBLIC "-//W3C//DTD SVG 20010904//EN"
 "http://www.w3.org/TR/2001/REC-SVG-20010904/DTD/svg10.dtd">
<svg version="1.0" xmlns="http://www.w3.org/2000/svg"
 width="512.000000pt" height="512.000000pt" viewBox="0 0 512.000000 512.000000"
 preserveAspectRatio="xMidYMid meet">
<metadata>
Created by potrace 1.14, written by Peter Selinger 2001-2017
</metadata>
<g transform="translate(0.000000,512.000000) scale(0.100000,-0.100000)"
fill="#000000" stroke="none">
<path d="M3235 4614 c-262 -37 -406 -68 -670 -140 -632 -172 -1523 -529 -1831
-733 -105 -69 -144 -117 -204 -243 -74 -160 -106 -336 -97 -543 7 -159 38
-287 100 -418 83 -172 85 -174 414 -372 l291 -175 12 -52 c6 -29 56 -278 111
-552 55 -275 101 -501 102 -501 22 -16 929 -495 936 -495 6 0 161 112 343 249
l333 250 33 -21 33 -20 55 28 c232 117 489 617 710 1378 62 214 105 417 131
621 25 199 25 718 0 890 -68 464 -219 745 -443 827 -48 17 -85 22 -194 24 -74
1 -148 0 -165 -2z m-129 -1099 c376 -85 580 -481 411 -799 -41 -77 -138 -181
-211 -225 -127 -76 -300 -113 -435 -92 -41 6 -75 10 -77 9 -1 -2 103 -140 232
-308 175 -227 234 -310 230 -325 -3 -11 -42 -177 -86 -370 -45 -192 -84 -353
-87 -358 -3 -5 -160 -125 -350 -267 l-345 -259 -86 47 c-48 26 -231 123 -407
217 l-319 171 -107 534 -107 535 61 65 c34 36 111 115 170 176 l109 111 -69 6
c-187 18 -344 124 -422 286 -35 74 -36 79 -36 191 0 109 2 119 32 183 41 87
135 183 221 226 267 135 604 30 724 -226 79 -168 50 -360 -75 -495 l-44 -48
172 0 c95 0 221 -3 281 -6 l109 -6 -45 38 c-189 161 -263 356 -215 563 24 98
70 177 155 261 163 162 376 219 616 165z"/>
<path d="M2734 3134 c-58 -21 -118 -75 -148 -136 -21 -42 -26 -66 -26 -125 0
-103 28 -173 99 -244 76 -76 146 -103 253 -97 95 6 156 39 205 112 42 62 56
116 50 194 -16 210 -242 364 -433 296z"/>
<path d="M1595 3021 c-102 -47 -143 -164 -94 -271 26 -59 63 -96 124 -127 149
-77 315 13 315 171 0 68 -16 109 -61 161 -69 78 -195 107 -284 66z"/>
<path d="M2163 2469 c-147 -73 -189 -311 -65 -369 17 -8 32 -17 32 -20 0 -3
-36 -29 -80 -59 l-80 -55 26 -27 26 -27 87 60 87 59 111 -51 111 -52 99 32
c54 18 100 34 102 36 5 5 -20 64 -27 64 -3 0 -43 -12 -88 -27 l-82 -26 -96 43
-95 43 46 41 c61 53 93 123 93 201 0 129 -95 190 -207 134z"/>
</g>
</svg>
